<svg xmlns="http://www.w3.org/2000/svg" xmlns:xlink="http://www.w3.org/1999/xlink" xmlns:lucid="lucid" width="2347.52" height="1360"><g transform="translate(0 0)" lucid:page-tab-id="HWEp-vi-RSFO"><path d="M800 88c0-4.42 3.58-8 8-8h836.75c4.42 0 8 3.58 8 8v55.48c0 4.42-3.58 8-8 8H808c-4.42 0-8-3.58-8-8z" stroke="#000" stroke-opacity="0" stroke-width="2" fill="#fff" fill-opacity="0"/><use xlink:href="#a" transform="matrix(1,0,0,1,804,84) translate(284.2248148148149 43.47333333333333)"/><path d="M800 160c0-4.42 3.58-8 8-8h837.7c4.43 0 8 3.58 8 8v68c0 4.42-3.57 8-8 8H808c-4.42 0-8-3.58-8-8z" stroke="#000" stroke-opacity="0" stroke-width="2" fill="#fff" fill-opacity="0"/><use xlink:href="#b" transform="matrix(1,0,0,1,804.0000000000005,156) translate(291.79863168724285 47.788148148148146)"/><use xlink:href="#c" transform="matrix(1,0,0,1,804.0000000000005,156) translate(395.3453395061729 47.788148148148146)"/><path d="M198.76 773h300v80h-300z" stroke="#333" stroke-width="2" fill="#fff"/><use xlink:href="#d" transform="matrix(1,0,0,1,206.76061624042768,781) translate(1.6750000000000114 35.6)"/><path d="M1218.76 773h220v80h-220z" stroke="#333" stroke-width="2" fill="#fff"/><use xlink:href="#e" transform="matrix(1,0,0,1,1226.7606162404277,781) translate(4.125 35.6)"/><path d="M733.76 773h230v80h-230z" stroke="#333" stroke-width="2" fill="#fff"/><use xlink:href="#f" transform="matrix(1,0,0,1,741.7606162404277,781) translate(-2.375 35.6)"/><path d="M1198.76 556h260v97h-260z" stroke="#333" stroke-width="2" fill="#fff"/><path d="M1198.76 615.2h260" stroke="#333" stroke-width="2" fill="none"/><use xlink:href="#g" transform="matrix(1,0,0,1,1206.7606162404277,564) translate(65.125 14.799999999999999)"/><use xlink:href="#h" transform="matrix(1,0,0,1,1206.7606162404277,564) translate(32.5 36.4)"/><path d="M218.76 556h260v97h-260z" stroke="#333" stroke-width="2" fill="#fff"/><path d="M218.76 615.2h260" stroke="#333" stroke-width="2" fill="none"/><use xlink:href="#g" transform="matrix(1,0,0,1,226.76061624042768,564) translate(65.125 14.799999999999999)"/><use xlink:href="#i" transform="matrix(1,0,0,1,226.76061624042768,564) translate(30.650000000000006 36.4)"/><path d="M718.76 556h260v97h-260z" stroke="#333" stroke-width="2" fill="#fff"/><path d="M718.76 615.2h260" stroke="#333" stroke-width="2" fill="none"/><use xlink:href="#g" transform="matrix(1,0,0,1,726.7606162404277,564) translate(65.125 14.799999999999999)"/><use xlink:href="#j" transform="matrix(1,0,0,1,726.7606162404277,564) translate(20.025000000000006 36.4)"/><path d="M908.76 320h360v177h-360z" stroke="#333" stroke-width="2" fill="#fff"/><path d="M908.76 357.6h360m-360 80.7h360" stroke="#333" stroke-width="2" fill="none"/><use xlink:href="#k" transform="matrix(1,0,0,1,916.7606162404277,328) translate(48.42500000000004 14.6)"/><use xlink:href="#l" transform="matrix(1,0,0,1,920.7606162404277,365.6) translate(72.04999999999998 25.299999999999997)"/><use xlink:href="#m" transform="matrix(1,0,0,1,920.7606162404277,365.6) translate(154.55 25.299999999999997)"/><use xlink:href="#n" transform="matrix(1,0,0,1,920.7606162404277,365.6) translate(164.55 25.299999999999997)"/><use xlink:href="#o" transform="matrix(1,0,0,1,920.7606162404277,365.6) translate(68.125 46.9)"/><use xlink:href="#m" transform="matrix(1,0,0,1,920.7606162404277,365.6) translate(155.025 46.9)"/><use xlink:href="#p" transform="matrix(1,0,0,1,920.7606162404277,365.6) translate(165.025 46.9)"/><path d="M933.8 527h-73l-3.02.4-2.76 1.14-2.4 1.83-1.82 2.4-1.14 2.75-.4 3v.1h-1v-.15l.42-3.2 1.24-3 2-2.6 2.6-2 3-1.25 3.2-.42h73.1zm155.46-12.47l-.42 3.2-1.24 3-2 2.6-2.6 2-3 1.25-3.2.42h-73.1v-1h73.03l3-.4 2.77-1.14 2.4-1.83 1.82-2.4 1.15-2.75.4-3V498.5h1zM1089.26 498.5h-1v-.5h1zM848.76 553.38l-4.63-14.26h9.27z" fill="#333"/><path d="M848.76 555l-5.32-16.38h10.64zm-3.95-15.38l3.96 12.14 3.95-12.14z" fill="#333"/><use xlink:href="#q" transform="matrix(1,0,0,1,933.8106162404276,515.7) translate(0.005000000000002558 14.4)"/><path d="M1316.8 526l3.2.42 3 1.24 2.6 2 2 2.6 1.24 3 .42 3.2v.16h-1v-.1l-.4-3-1.14-2.76-1.83-2.4-2.4-1.82-2.76-1.14-3-.4h-73.03v-1zm-227.14-8.52l1.14 2.76 1.83 2.4 2.4 1.82 2.75 1.14 3 .4h73.03v1h-73.07l-3.2-.42-3-1.24-2.6-2-2-2.6-1.25-3-.42-3.2V498.5h1v15.97zM1089.26 498.5h-1v-.5h1zM1328.76 553.38l-4.63-14.26h9.27z" fill="#333"/><path d="M1328.76 555l-5.32-16.38h10.64zm-3.95-15.38l3.96 12.14 3.95-12.14z" fill="#333"/><use xlink:href="#q" transform="matrix(1,0,0,1,1173.8106162404276,515.7) translate(0.005000000000002558 14.4)"/><path d="M849.26 771.5h-1v-47.7h1zm0-69.3h-1v-31.82h1zM849.26 772h-1v-.5h1zM853.4 669.88h-9.27l4.63-14.26z" fill="#333"/><path d="M854.08 670.38h-10.64l5.32-16.38zm-9.27-1h7.9l-3.94-12.14z" fill="#333"/><use xlink:href="#r" transform="matrix(1,0,0,1,802.8606162404277,702.2) translate(0.005000000000002558 14.4)"/><path d="M1329.26 771.5h-1v-47.7h1zm0-69.3h-1v-31.82h1zM1329.26 772h-1v-.5h1zM1333.4 669.88h-9.27l4.63-14.26z" fill="#333"/><path d="M1334.08 670.38h-10.64l5.32-16.38zm-9.27-1h7.9l-3.94-12.14z" fill="#333"/><use xlink:href="#r" transform="matrix(1,0,0,1,1282.8606162404276,702.2) translate(0.005000000000002558 14.4)"/><path d="M1232.76 1176h192v80h-192z" stroke="#333" stroke-width="2" fill="#fff"/><use xlink:href="#s" transform="matrix(1,0,0,1,1240.7606162404277,1184) translate(19.075000000000003 35.6)"/><path d="M1878.26 773h181v80h-181z" stroke="#333" stroke-width="2" fill="#fff"/><use xlink:href="#t" transform="matrix(1,0,0,1,1886.2606162404277,781) translate(-2.924999999999997 35.6)"/><path d="M1198.76 959h260v97h-260z" stroke="#333" stroke-width="2" fill="#fff"/><path d="M1198.76 1018.2h260" stroke="#333" stroke-width="2" fill="none"/><use xlink:href="#g" transform="matrix(1,0,0,1,1206.7606162404277,967) translate(65.125 14.799999999999999)"/><use xlink:href="#u" transform="matrix(1,0,0,1,1206.7606162404277,967) translate(12.25 36.4)"/><path d="M1838.76 556h260v97h-260z" stroke="#333" stroke-width="2" fill="#fff"/><path d="M1838.76 615.2h260" stroke="#333" stroke-width="2" fill="none"/><use xlink:href="#g" transform="matrix(1,0,0,1,1846.7606162404277,564) translate(65.125 14.799999999999999)"/><use xlink:href="#j" transform="matrix(1,0,0,1,1846.7606162404277,564) translate(20.025000000000006 36.4)"/><path d="M1788.76 320h360v156h-360z" stroke="#333" stroke-width="2" fill="#fff"/><path d="M1788.76 357.6h360m-360 59.1h360" stroke="#333" stroke-width="2" fill="none"/><use xlink:href="#v" transform="matrix(1,0,0,1,1796.7606162404277,328) translate(52.95000000000003 14.6)"/><use xlink:href="#l" transform="matrix(1,0,0,1,1800.7606162404277,365.6) translate(72.04999999999998 25.6)"/><use xlink:href="#m" transform="matrix(1,0,0,1,1800.7606162404277,365.6) translate(154.55 25.6)"/><use xlink:href="#w" transform="matrix(1,0,0,1,1800.7606162404277,365.6) translate(164.55 25.6)"/><path d="M1969.26 538.62h-1V526.8h1zm0-33.42h-1v-27.7h1zM1969.26 477.5h-1v-.5h1zM1968.76 553.38l-4.63-14.26h9.27z" fill="#333"/><path d="M1968.76 555l-5.32-16.38h10.64zm-3.95-15.38l3.96 12.14 3.95-12.14z" fill="#333"/><use xlink:href="#q" transform="matrix(1,0,0,1,1933.8106162404276,505.2) translate(0.005000000000002558 14.4)"/><path d="M1969.26 771.5h-1v-47.7h1zm0-69.3h-1v-31.82h1zM1969.26 772h-1v-.5h1zM1973.4 669.88h-9.27l4.63-14.26z" fill="#333"/><path d="M1974.08 670.38h-10.64l5.32-16.38zm-9.27-1h7.9l-3.94-12.14z" fill="#333"/><use xlink:href="#r" transform="matrix(1,0,0,1,1922.8606162404276,702.2) translate(0.005000000000002558 14.4)"/><path d="M1614.26 801.03l-.42 3.2-1.24 3-2 2.6-2.6 2-3 1.25-3.2.42h-161.54v-1h161.47l3-.4 2.77-1.14 2.4-1.83 1.82-2.4 1.15-2.75.4-3V641.4h1zm157.12-352.32h-145.6l-3 .4-2.76 1.15-2.4 1.84-1.82 2.37-1.14 2.76-.4 3.02V619.8h-1V460.2l.42-3.2 1.24-3 2-2.6 2.6-2 3-1.25 3.2-.42h145.66zM1786.14 448.2l-14.26 4.65v-9.27z" fill="#333"/><path d="M1787.76 448.2l-16.38 5.34V442.9zm-15.38 3.96l12.14-3.95-12.14-3.93zM1440.27 813.5h-.5v-1h.5z" fill="#333"/><use xlink:href="#x" transform="matrix(1,0,0,1,1550.3606162404276,619.8068498824734) translate(0.005000000000002558 14.4)"/><path d="M1329.26 1174.5h-1v-47.7h1zm0-69.3h-1v-31.82h1zM1329.26 1175h-1v-.5h1zM1333.4 1072.88h-9.27l4.63-14.26z" fill="#333"/><path d="M1334.08 1073.38h-10.64l5.32-16.38zm-9.27-1h7.9l-3.94-12.14z" fill="#333"/><use xlink:href="#q" transform="matrix(1,0,0,1,1293.8106162404276,1105.2) translate(0.005000000000002558 14.4)"/><path d="M1745.1 1008h-268.96v-1h268.97zm224.16-12.47l-.42 3.2-1.24 3-2 2.6-2.6 2-3 1.25-3.2.42h-119.9v-1h119.83l3-.4 2.77-1.14 2.4-1.83 1.82-2.4 1.15-2.75.4-3V854.5h1zM1969.26 854.5h-1v-.5h1zM1475.64 1012.14l-14.26-4.64 14.26-4.64z" fill="#333"/><path d="M1476.14 1012.82l-16.38-5.32 16.38-5.32zm-13.14-5.32l12.14 3.95v-7.9z" fill="#333"/><use xlink:href="#r" transform="matrix(1,0,0,1,1745.1106162404276,996.7) translate(0.005000000000002558 14.4)"/><path d="M849.26 995.47l.4 3 1.14 2.77 1.83 2.4 2.4 1.82 2.75 1.14 3 .4h39.83v1h-39.87l-3.2-.42-3-1.24-2.6-2-2-2.6-1.25-3-.42-3.2V854.5h1zm332.12 11.53v1H992.4v-1zM849.26 854.5h-1v-.5h1zM1196.14 1007.5l-14.26 4.64v-9.28z" fill="#333"/><path d="M1197.76 1007.5l-16.38 5.32v-10.64zm-15.38 3.95l12.14-3.95-12.14-3.95z" fill="#333"/><use xlink:href="#r" transform="matrix(1,0,0,1,900.6106162404277,996.7) translate(0.005000000000002558 14.4)"/><path d="M520.06 409H360.8l-3.02.4-2.76 1.14-2.4 1.83-1.82 2.4-1.14 2.75-.4 3v118.1h-1V420.47l.42-3.2 1.24-3 2-2.6 2.6-2 3-1.25 3.2-.42h159.34zm387.2 0h-317.3v-1h317.3zM907.76 409h-.5v-1h.5zM348.76 553.38l-4.63-14.26h9.27z" fill="#333"/><path d="M348.76 555l-5.32-16.38h10.64zm-3.95-15.38l3.96 12.14 3.95-12.14z" fill="#333"/><use xlink:href="#q" transform="matrix(1,0,0,1,520.0606162404276,397.7) translate(0.005000000000002558 14.4)"/><path d="M349.26 771.5h-1v-47.7h1zm0-69.3h-1v-31.82h1zM349.26 772h-1v-.5h1zM353.4 669.88h-9.27l4.63-14.26z" fill="#333"/><path d="M354.08 670.38h-10.64l5.32-16.38zm-9.27-1h7.9l-3.94-12.14z" fill="#333"/><g><use xlink:href="#r" transform="matrix(1,0,0,1,302.8606162404277,702.2) translate(0.005000000000002558 14.4)"/></g><path d="M565.3 813.5h-65.04v-1h65.03zm151.08 0h-49.14v-1h49.14z" fill="#333"/><path d="M500.27 813.5h-.5v-1h.5zM731.14 813l-14.26 4.64v-9.28z" fill="#333"/><path d="M732.76 813l-16.38 5.32v-10.64zm-15.38 3.95l12.14-3.95-12.14-3.95z" fill="#333"/><g><use xlink:href="#y" transform="matrix(1,0,0,1,565.2856162404277,802.2) translate(0.005000000000002558 14.4)"/></g><path d="M1498.84 355.3h-212.7v-1h212.7zm288.42 0H1558.7v-1h228.56zM1787.76 355.3h-.5v-1h.5zM1285.65 359.44l-14.27-4.64 14.27-4.63z" fill="#333"/><path d="M1286.15 360.12l-16.4-5.32 16.4-5.32zM1273 354.8l12.15 3.95v-7.9z" fill="#333"/><g><use xlink:href="#z" transform="matrix(1,0,0,1,1498.8356162404277,344.0006491639868) translate(0.004999999999999005 14.4)"/></g><defs><path fill="#333" d="M24-248c93 1 206-16 204 79-1 75-69 88-152 82V0H24v-248zm52 121c47 0 100 7 100-41 0-47-54-39-100-39v80" id="A"/><path fill="#333" d="M110-194c64 0 96 36 96 99 0 64-35 99-97 99-61 0-95-36-95-99 0-62 34-99 96-99zm-1 164c35 0 45-28 45-65 0-40-10-65-43-65-34 0-45 26-45 65 0 36 10 65 43 65" id="B"/><path fill="#333" d="M147 0L96-86 75-71V0H25v-261h50v150l67-79h53l-66 74L201 0h-54" id="C"/><path fill="#333" d="M185-48c-13 30-37 53-82 52C43 2 14-33 14-96s30-98 90-98c62 0 83 45 84 108H66c0 31 8 55 39 56 18 0 30-7 34-22zm-45-69c5-46-57-63-70-21-2 6-4 13-4 21h74" id="D"/><path fill="#333" d="M147 0H94L2-248h55l64 206c17-72 42-137 63-206h54" id="E"/><path fill="#333" d="M25-224v-37h50v37H25zM25 0v-190h50V0H25" id="F"/><path fill="#333" d="M231 0h-52l-39-155L100 0H48L-1-190h46L77-45c9-52 24-97 36-145h53l37 145 32-145h46" id="G"/><path fill="#333" d="M135-150c-39-12-60 13-60 57V0H25l-1-190h47c2 13-1 29 3 40 6-28 27-53 61-41v41" id="H"/><g id="a"><use transform="matrix(0.14074074074074064,0,0,0.14074074074074064,0,0)" xlink:href="#A"/><use transform="matrix(0.14074074074074064,0,0,0.14074074074074064,33.77777777777775,0)" xlink:href="#B"/><use transform="matrix(0.14074074074074064,0,0,0.14074074074074064,64.59999999999995,0)" xlink:href="#C"/><use transform="matrix(0.14074074074074064,0,0,0.14074074074074064,92.74814814814808,0)" xlink:href="#D"/><use transform="matrix(0.14074074074074064,0,0,0.14074074074074064,120.8962962962962,0)" xlink:href="#E"/><use transform="matrix(0.14074074074074064,0,0,0.14074074074074064,153.68888888888875,0)" xlink:href="#F"/><use transform="matrix(0.14074074074074064,0,0,0.14074074074074064,167.76296296296283,0)" xlink:href="#D"/><use transform="matrix(0.14074074074074064,0,0,0.14074074074074064,195.91111111111096,0)" xlink:href="#G"/><use transform="matrix(0.14074074074074064,0,0,0.14074074074074064,235.31851851851832,0)" xlink:href="#D"/><use transform="matrix(0.14074074074074064,0,0,0.14074074074074064,263.46666666666647,0)" xlink:href="#H"/></g><path fill="#333" d="M233-177c-1 41-23 64-60 70L243 0h-38l-65-103H63V0H30v-248c88 3 205-21 203 71zM63-129c60-2 137 13 137-47 0-61-80-42-137-45v92" id="I"/><path fill="#333" d="M100-194c62-1 85 37 85 99 1 63-27 99-86 99S16-35 15-95c0-66 28-99 85-99zM99-20c44 1 53-31 53-75 0-43-8-75-51-75s-53 32-53 75 10 74 51 75" id="J"/><path fill="#333" d="M106-169C34-169 62-67 57 0H25v-261h32l-1 103c12-21 28-36 61-36 89 0 53 116 60 194h-32v-121c2-32-8-49-39-48" id="K"/><path fill="#333" d="M24-231v-30h32v30H24zM24 0v-190h32V0H24" id="L"/><path fill="#333" d="M59-47c-2 24 18 29 38 22v24C64 9 27 4 27-40v-127H5v-23h24l9-43h21v43h35v23H59v120" id="M"/><g id="b"><use transform="matrix(0.1103909465020576,0,0,0.1103909465020576,0,0)" xlink:href="#I"/><use transform="matrix(0.1103909465020576,0,0,0.1103909465020576,28.591255144032917,0)" xlink:href="#J"/><use transform="matrix(0.1103909465020576,0,0,0.1103909465020576,50.66944444444444,0)" xlink:href="#K"/><use transform="matrix(0.1103909465020576,0,0,0.1103909465020576,72.74763374485596,0)" xlink:href="#L"/><use transform="matrix(0.1103909465020576,0,0,0.1103909465020576,81.46851851851851,0)" xlink:href="#M"/></g><path fill="#333" d="M30 0v-248h33v221h125V0H30" id="N"/><path fill="#333" d="M84 4C-5 8 30-112 23-190h32v120c0 31 7 50 39 49 72-2 45-101 50-169h31l1 190h-30c-1-10 1-25-2-33-11 22-28 36-60 37" id="O"/><path fill="#333" d="M117-194c89-4 53 116 60 194h-32v-121c0-31-8-49-39-48C34-167 62-67 57 0H25l-1-190h30c1 10-1 24 2 32 11-22 29-35 61-36" id="P"/><path fill="#333" d="M141-36C126-15 110 5 73 4 37 3 15-17 15-53c-1-64 63-63 125-63 3-35-9-54-41-54-24 1-41 7-42 31l-33-3c5-37 33-52 76-52 45 0 72 20 72 64v82c-1 20 7 32 28 27v20c-31 9-61-2-59-35zM48-53c0 20 12 33 32 33 41-3 63-29 60-74-43 2-92-5-92 41" id="Q"/><path fill="#333" d="M108 0H70L1-190h34L89-25l56-165h34" id="R"/><path fill="#333" d="M114-163C36-179 61-72 57 0H25l-1-190h30c1 12-1 29 2 39 6-27 23-49 58-41v29" id="S"/><g id="c"><use transform="matrix(0.1103909465020576,0,0,0.1103909465020576,0,0)" xlink:href="#N"/><use transform="matrix(0.1103909465020576,0,0,0.1103909465020576,22.07818930041152,0)" xlink:href="#O"/><use transform="matrix(0.1103909465020576,0,0,0.1103909465020576,44.15637860082304,0)" xlink:href="#P"/><use transform="matrix(0.1103909465020576,0,0,0.1103909465020576,66.23456790123456,0)" xlink:href="#Q"/><use transform="matrix(0.1103909465020576,0,0,0.1103909465020576,88.31275720164608,0)" xlink:href="#R"/><use transform="matrix(0.1103909465020576,0,0,0.1103909465020576,108.18312757201645,0)" xlink:href="#Q"/><use transform="matrix(0.1103909465020576,0,0,0.1103909465020576,130.26131687242795,0)" xlink:href="#S"/><use transform="matrix(0.1103909465020576,0,0,0.1103909465020576,143.3978395061728,0)" xlink:href="#Q"/></g><path fill="#333" d="M30-248c87 1 191-15 191 75 0 78-77 80-158 76V0H30v-248zm33 125c57 0 124 11 124-50 0-59-68-47-124-48v98" id="T"/><path fill="#333" d="M143 0L79-87 56-68V0H24v-261h32v163l83-92h37l-77 82L181 0h-38" id="U"/><path fill="#333" d="M100-194c63 0 86 42 84 106H49c0 40 14 67 53 68 26 1 43-12 49-29l28 8c-11 28-37 45-77 45C44 4 14-33 15-96c1-61 26-98 85-98zm52 81c6-60-76-77-97-28-3 7-6 17-6 28h103" id="V"/><path fill="#333" d="M210-169c-67 3-38 105-44 169h-31v-121c0-29-5-50-35-48C34-165 62-65 56 0H25l-1-190h30c1 10-1 24 2 32 10-44 99-50 107 0 11-21 27-35 58-36 85-2 47 119 55 194h-31v-121c0-29-5-49-35-48" id="W"/><path fill="#333" d="M190 0L58-211 59 0H30v-248h39L202-35l-2-213h31V0h-41" id="X"/><path fill="#333" d="M185-189c-5-48-123-54-124 2 14 75 158 14 163 119 3 78-121 87-175 55-17-10-28-26-33-46l33-7c5 56 141 63 141-1 0-78-155-14-162-118-5-82 145-84 179-34 5 7 8 16 11 25" id="Y"/><path fill="#333" d="M96-169c-40 0-48 33-48 73s9 75 48 75c24 0 41-14 43-38l32 2c-6 37-31 61-74 61-59 0-76-41-82-99-10-93 101-131 147-64 4 7 5 14 7 22l-32 3c-4-21-16-35-41-35" id="Z"/><path fill="#333" d="M160-131c35 5 61 23 61 61C221 17 115-2 30 0v-248c76 3 177-17 177 60 0 33-19 50-47 57zm-97-11c50-1 110 9 110-42 0-47-63-36-110-37v79zm0 115c55-2 124 14 124-45 0-56-70-42-124-44v89" id="aa"/><path fill="#333" d="M30-248c118-7 216 8 213 122C240-48 200 0 122 0H30v-248zM63-27c89 8 146-16 146-99s-60-101-146-95v194" id="ab"/><path fill="#333" d="M24 0v-261h32V0H24" id="ac"/><path fill="#333" d="M177-190C167-65 218 103 67 71c-23-6-38-20-44-43l32-5c15 47 100 32 89-28v-30C133-14 115 1 83 1 29 1 15-40 15-95c0-56 16-97 71-98 29-1 48 16 59 35 1-10 0-23 2-32h30zM94-22c36 0 50-32 50-73 0-42-14-75-50-75-39 0-46 34-46 75s6 73 46 73" id="ad"/><g id="d"><use transform="matrix(0.05,0,0,0.05,0,0)" xlink:href="#T"/><use transform="matrix(0.05,0,0,0.05,12,0)" xlink:href="#J"/><use transform="matrix(0.05,0,0,0.05,22,0)" xlink:href="#U"/><use transform="matrix(0.05,0,0,0.05,31,0)" xlink:href="#V"/><use transform="matrix(0.05,0,0,0.05,41,0)" xlink:href="#W"/><use transform="matrix(0.05,0,0,0.05,55.95,0)" xlink:href="#J"/><use transform="matrix(0.05,0,0,0.05,65.95,0)" xlink:href="#P"/><use transform="matrix(0.05,0,0,0.05,75.95,0)" xlink:href="#X"/><use transform="matrix(0.05,0,0,0.05,88.9,0)" xlink:href="#Q"/><use transform="matrix(0.05,0,0,0.05,98.9,0)" xlink:href="#W"/><use transform="matrix(0.05,0,0,0.05,113.85000000000001,0)" xlink:href="#V"/><use transform="matrix(0.05,0,0,0.05,123.85000000000001,0)" xlink:href="#Y"/><use transform="matrix(0.05,0,0,0.05,135.85000000000002,0)" xlink:href="#V"/><use transform="matrix(0.05,0,0,0.05,145.85000000000002,0)" xlink:href="#Q"/><use transform="matrix(0.05,0,0,0.05,155.85000000000002,0)" xlink:href="#S"/><use transform="matrix(0.05,0,0,0.05,161.8,0)" xlink:href="#Z"/><use transform="matrix(0.05,0,0,0.05,170.8,0)" xlink:href="#K"/><use transform="matrix(0.05,0,0,0.05,180.8,0)" xlink:href="#aa"/><use transform="matrix(0.05,0,0,0.05,192.8,0)" xlink:href="#Q"/><use transform="matrix(0.05,0,0,0.05,202.8,0)" xlink:href="#S"/><use transform="matrix(0.05,0,0,0.05,208.75,0)" xlink:href="#ab"/><use transform="matrix(0.05,0,0,0.05,221.69999999999996,0)" xlink:href="#V"/><use transform="matrix(0.05,0,0,0.05,231.69999999999996,0)" xlink:href="#ac"/><use transform="matrix(0.05,0,0,0.05,235.64999999999998,0)" xlink:href="#V"/><use transform="matrix(0.05,0,0,0.05,245.64999999999998,0)" xlink:href="#ad"/><use transform="matrix(0.05,0,0,0.05,255.64999999999998,0)" xlink:href="#Q"/><use transform="matrix(0.05,0,0,0.05,265.65,0)" xlink:href="#M"/><use transform="matrix(0.05,0,0,0.05,270.65,0)" xlink:href="#V"/></g><g id="e"><use transform="matrix(0.05,0,0,0.05,0,0)" xlink:href="#T"/><use transform="matrix(0.05,0,0,0.05,12,0)" xlink:href="#J"/><use transform="matrix(0.05,0,0,0.05,22,0)" xlink:href="#U"/><use transform="matrix(0.05,0,0,0.05,31,0)" xlink:href="#V"/><use transform="matrix(0.05,0,0,0.05,41,0)" xlink:href="#W"/><use transform="matrix(0.05,0,0,0.05,55.95,0)" xlink:href="#J"/><use transform="matrix(0.05,0,0,0.05,65.95,0)" xlink:href="#P"/><use transform="matrix(0.05,0,0,0.05,75.95,0)" xlink:href="#X"/><use transform="matrix(0.05,0,0,0.05,88.9,0)" xlink:href="#Q"/><use transform="matrix(0.05,0,0,0.05,98.9,0)" xlink:href="#W"/><use transform="matrix(0.05,0,0,0.05,113.85000000000001,0)" xlink:href="#V"/><use transform="matrix(0.05,0,0,0.05,123.85000000000001,0)" xlink:href="#ab"/><use transform="matrix(0.05,0,0,0.05,136.8,0)" xlink:href="#V"/><use transform="matrix(0.05,0,0,0.05,146.8,0)" xlink:href="#ac"/><use transform="matrix(0.05,0,0,0.05,150.75,0)" xlink:href="#V"/><use transform="matrix(0.05,0,0,0.05,160.75,0)" xlink:href="#ad"/><use transform="matrix(0.05,0,0,0.05,170.75,0)" xlink:href="#Q"/><use transform="matrix(0.05,0,0,0.05,180.75,0)" xlink:href="#M"/><use transform="matrix(0.05,0,0,0.05,185.75,0)" xlink:href="#V"/></g><g id="f"><use transform="matrix(0.05,0,0,0.05,0,0)" xlink:href="#T"/><use transform="matrix(0.05,0,0,0.05,12,0)" xlink:href="#J"/><use transform="matrix(0.05,0,0,0.05,22,0)" xlink:href="#U"/><use transform="matrix(0.05,0,0,0.05,31,0)" xlink:href="#V"/><use transform="matrix(0.05,0,0,0.05,41,0)" xlink:href="#W"/><use transform="matrix(0.05,0,0,0.05,55.95,0)" xlink:href="#J"/><use transform="matrix(0.05,0,0,0.05,65.95,0)" xlink:href="#P"/><use transform="matrix(0.05,0,0,0.05,75.95,0)" xlink:href="#X"/><use transform="matrix(0.05,0,0,0.05,88.9,0)" xlink:href="#Q"/><use transform="matrix(0.05,0,0,0.05,98.9,0)" xlink:href="#W"/><use transform="matrix(0.05,0,0,0.05,113.85000000000001,0)" xlink:href="#V"/><use transform="matrix(0.05,0,0,0.05,123.85000000000001,0)" xlink:href="#ab"/><use transform="matrix(0.05,0,0,0.05,136.8,0)" xlink:href="#Q"/><use transform="matrix(0.05,0,0,0.05,146.8,0)" xlink:href="#M"/><use transform="matrix(0.05,0,0,0.05,151.8,0)" xlink:href="#Q"/><use transform="matrix(0.05,0,0,0.05,161.8,0)" xlink:href="#Y"/><use transform="matrix(0.05,0,0,0.05,173.8,0)" xlink:href="#J"/><use transform="matrix(0.05,0,0,0.05,183.8,0)" xlink:href="#O"/><use transform="matrix(0.05,0,0,0.05,193.8,0)" xlink:href="#S"/><use transform="matrix(0.05,0,0,0.05,199.75,0)" xlink:href="#Z"/><use transform="matrix(0.05,0,0,0.05,208.75,0)" xlink:href="#V"/></g><path d="M15-91v-56l181-69v40L49-119l147 57v40" id="ae"/><path d="M135-194c53 0 70 44 70 98 0 56-19 98-73 100-31 1-45-17-59-34 3 33 2 69 2 105H25l-1-265h48c2 10 0 23 3 31 11-24 29-35 60-35zM114-30c33 0 39-31 40-66 0-38-9-64-40-64-56 0-55 130 0 130" id="af"/><path d="M135-150c-39-12-60 13-60 57V0H25l-1-190h47c2 13-1 29 3 40 6-28 27-53 61-41v41" id="ag"/><path d="M110-194c64 0 96 36 96 99 0 64-35 99-97 99-61 0-95-36-95-99 0-62 34-99 96-99zm-1 164c35 0 45-28 45-65 0-40-10-65-43-65-34 0-45 26-45 65 0 36 10 65 43 65" id="ah"/><path d="M115-3C79 11 28 4 28-45v-112H4v-33h27l15-45h31v45h36v33H77v99c-1 23 16 31 38 25v30" id="ai"/><path d="M190-63c-7 42-38 67-86 67-59 0-84-38-90-98-12-110 154-137 174-36l-49 2c-2-19-15-32-35-32-30 0-35 28-38 64-6 74 65 87 74 30" id="aj"/><path d="M25 0v-261h50V0H25" id="ak"/><path d="M15-22v-40l146-57-146-57v-40l181 69v56" id="al"/><g id="g"><use transform="matrix(0.05,0,0,0.05,0,0)" xlink:href="#ae"/><use transform="matrix(0.05,0,0,0.05,10.5,0)" xlink:href="#ae"/><use transform="matrix(0.05,0,0,0.05,21,0)" xlink:href="#af"/><use transform="matrix(0.05,0,0,0.05,31.950000000000003,0)" xlink:href="#ag"/><use transform="matrix(0.05,0,0,0.05,38.95,0)" xlink:href="#ah"/><use transform="matrix(0.05,0,0,0.05,49.900000000000006,0)" xlink:href="#ai"/><use transform="matrix(0.05,0,0,0.05,55.85,0)" xlink:href="#ah"/><use transform="matrix(0.05,0,0,0.05,66.80000000000001,0)" xlink:href="#aj"/><use transform="matrix(0.05,0,0,0.05,76.80000000000001,0)" xlink:href="#ah"/><use transform="matrix(0.05,0,0,0.05,87.75000000000001,0)" xlink:href="#ak"/><use transform="matrix(0.05,0,0,0.05,92.75000000000001,0)" xlink:href="#al"/><use transform="matrix(0.05,0,0,0.05,103.25,0)" xlink:href="#al"/></g><path d="M238-95c0 69-44 99-111 99C63 4 22-25 22-93v-155h51v151c-1 38 19 59 55 60 90 1 49-130 58-211h52v153" id="am"/><path d="M24 0v-248h52V0H24" id="an"/><path d="M136-208V0H84v-208H4v-40h212v40h-80" id="ao"/><path d="M133-34C117-15 103 5 69 4 32 3 11-16 11-54c-1-60 55-63 116-61 1-26-3-47-28-47-18 1-26 9-28 27l-52-2c7-38 36-58 82-57s74 22 75 68l1 82c-1 14 12 18 25 15v27c-30 8-71 5-69-32zm-48 3c29 0 43-24 42-57-32 0-66-3-65 30 0 17 8 27 23 27" id="ap"/><path d="M135-194c52 0 70 43 70 98 0 56-19 99-73 100-30 1-46-15-58-35L72 0H24l1-261h50v104c11-23 29-37 60-37zM114-30c31 0 40-27 40-66 0-37-7-63-39-63s-41 28-41 65c0 36 8 64 40 64" id="aq"/><path d="M185-48c-13 30-37 53-82 52C43 2 14-33 14-96s30-98 90-98c62 0 83 45 84 108H66c0 31 8 55 39 56 18 0 30-7 34-22zm-45-69c5-46-57-63-70-21-2 6-4 13-4 21h74" id="ar"/><path d="M147 0H94L2-248h55l64 206c17-72 42-137 63-206h54" id="as"/><path d="M25-224v-37h50v37H25zM25 0v-190h50V0H25" id="at"/><path d="M231 0h-52l-39-155L100 0H48L-1-190h46L77-45c9-52 24-97 36-145h53l37 145 32-145h46" id="au"/><path d="M24-248c120-7 223 5 221 122C244-46 201 0 124 0H24v-248zM76-40c74 7 117-18 117-86 0-67-45-88-117-82v168" id="av"/><path d="M195-6C206 82 75 100 31 46c-4-6-6-13-8-21l49-6c3 16 16 24 34 25 40 0 42-37 40-79-11 22-30 35-61 35-53 0-70-43-70-97 0-56 18-96 73-97 30 0 46 14 59 34l2-30h47zm-90-29c32 0 41-27 41-63 0-35-9-62-40-62-32 0-39 29-40 63 0 36 9 62 39 62" id="aw"/><g id="h"><use transform="matrix(0.05,0,0,0.05,0,0)" xlink:href="#am"/><use transform="matrix(0.05,0,0,0.05,12.950000000000001,0)" xlink:href="#an"/><use transform="matrix(0.05,0,0,0.05,17.950000000000003,0)" xlink:href="#ao"/><use transform="matrix(0.05,0,0,0.05,27.55,0)" xlink:href="#ap"/><use transform="matrix(0.05,0,0,0.05,37.550000000000004,0)" xlink:href="#aq"/><use transform="matrix(0.05,0,0,0.05,48.50000000000001,0)" xlink:href="#ak"/><use transform="matrix(0.05,0,0,0.05,53.5,0)" xlink:href="#ar"/><use transform="matrix(0.05,0,0,0.05,63.5,0)" xlink:href="#as"/><use transform="matrix(0.05,0,0,0.05,75.15,0)" xlink:href="#at"/><use transform="matrix(0.05,0,0,0.05,80.15,0)" xlink:href="#ar"/><use transform="matrix(0.05,0,0,0.05,90.15,0)" xlink:href="#au"/><use transform="matrix(0.05,0,0,0.05,104.15,0)" xlink:href="#av"/><use transform="matrix(0.05,0,0,0.05,117.10000000000001,0)" xlink:href="#ar"/><use transform="matrix(0.05,0,0,0.05,127.10000000000001,0)" xlink:href="#ak"/><use transform="matrix(0.05,0,0,0.05,132.10000000000002,0)" xlink:href="#ar"/><use transform="matrix(0.05,0,0,0.05,142.10000000000002,0)" xlink:href="#aw"/><use transform="matrix(0.05,0,0,0.05,153.05,0)" xlink:href="#ap"/><use transform="matrix(0.05,0,0,0.05,163.05,0)" xlink:href="#ai"/><use transform="matrix(0.05,0,0,0.05,169,0)" xlink:href="#ar"/></g><path d="M169-182c-1-43-94-46-97-3 18 66 151 10 154 114 3 95-165 93-204 36-6-8-10-19-12-30l50-8c3 46 112 56 116 5-17-69-150-10-154-114-4-87 153-88 188-35 5 8 8 18 10 28" id="ax"/><path d="M114-157C55-157 80-60 75 0H25v-261h50l-1 109c12-26 28-41 61-42 86-1 58 113 63 194h-50c-7-57 23-157-34-157" id="ay"/><path d="M182-130c37 4 62 22 62 59C244 23 116-4 24 0v-248c84 5 203-23 205 63 0 31-19 50-47 55zM76-148c40-3 101 13 101-30 0-44-60-28-101-31v61zm0 110c48-3 116 14 116-37 0-48-69-32-116-35v72" id="az"/><g id="i"><use transform="matrix(0.05,0,0,0.05,0,0)" xlink:href="#am"/><use transform="matrix(0.05,0,0,0.05,12.950000000000001,0)" xlink:href="#an"/><use transform="matrix(0.05,0,0,0.05,17.950000000000003,0)" xlink:href="#ax"/><use transform="matrix(0.05,0,0,0.05,29.950000000000003,0)" xlink:href="#ar"/><use transform="matrix(0.05,0,0,0.05,39.95,0)" xlink:href="#ap"/><use transform="matrix(0.05,0,0,0.05,49.95,0)" xlink:href="#ag"/><use transform="matrix(0.05,0,0,0.05,56.95,0)" xlink:href="#aj"/><use transform="matrix(0.05,0,0,0.05,66.95,0)" xlink:href="#ay"/><use transform="matrix(0.05,0,0,0.05,77.9,0)" xlink:href="#az"/><use transform="matrix(0.05,0,0,0.05,90.85000000000001,0)" xlink:href="#ap"/><use transform="matrix(0.05,0,0,0.05,100.85000000000001,0)" xlink:href="#ag"/><use transform="matrix(0.05,0,0,0.05,107.85000000000001,0)" xlink:href="#av"/><use transform="matrix(0.05,0,0,0.05,120.80000000000001,0)" xlink:href="#ar"/><use transform="matrix(0.05,0,0,0.05,130.8,0)" xlink:href="#ak"/><use transform="matrix(0.05,0,0,0.05,135.8,0)" xlink:href="#ar"/><use transform="matrix(0.05,0,0,0.05,145.8,0)" xlink:href="#aw"/><use transform="matrix(0.05,0,0,0.05,156.75,0)" xlink:href="#ap"/><use transform="matrix(0.05,0,0,0.05,166.75,0)" xlink:href="#ai"/><use transform="matrix(0.05,0,0,0.05,172.7,0)" xlink:href="#ar"/></g><path d="M85 4C-2 5 27-109 22-190h50c7 57-23 150 33 157 60-5 35-97 40-157h50l1 190h-47c-2-12 1-28-3-38-12 25-28 42-61 42" id="aA"/><g id="j"><use transform="matrix(0.05,0,0,0.05,0,0)" xlink:href="#am"/><use transform="matrix(0.05,0,0,0.05,12.950000000000001,0)" xlink:href="#an"/><use transform="matrix(0.05,0,0,0.05,17.950000000000003,0)" xlink:href="#ao"/><use transform="matrix(0.05,0,0,0.05,27.55,0)" xlink:href="#ap"/><use transform="matrix(0.05,0,0,0.05,37.550000000000004,0)" xlink:href="#aq"/><use transform="matrix(0.05,0,0,0.05,48.50000000000001,0)" xlink:href="#ak"/><use transform="matrix(0.05,0,0,0.05,53.5,0)" xlink:href="#ar"/><use transform="matrix(0.05,0,0,0.05,63.5,0)" xlink:href="#as"/><use transform="matrix(0.05,0,0,0.05,75.15,0)" xlink:href="#at"/><use transform="matrix(0.05,0,0,0.05,80.15,0)" xlink:href="#ar"/><use transform="matrix(0.05,0,0,0.05,90.15,0)" xlink:href="#au"/><use transform="matrix(0.05,0,0,0.05,104.15,0)" xlink:href="#av"/><use transform="matrix(0.05,0,0,0.05,117.10000000000001,0)" xlink:href="#ap"/><use transform="matrix(0.05,0,0,0.05,127.10000000000001,0)" xlink:href="#ai"/><use transform="matrix(0.05,0,0,0.05,133.05,0)" xlink:href="#ap"/><use transform="matrix(0.05,0,0,0.05,143.05,0)" xlink:href="#ax"/><use transform="matrix(0.05,0,0,0.05,155.05,0)" xlink:href="#ah"/><use transform="matrix(0.05,0,0,0.05,166,0)" xlink:href="#aA"/><use transform="matrix(0.05,0,0,0.05,176.95,0)" xlink:href="#ag"/><use transform="matrix(0.05,0,0,0.05,183.95,0)" xlink:href="#aj"/><use transform="matrix(0.05,0,0,0.05,193.95,0)" xlink:href="#ar"/></g><path fill="#333" d="M240 0l2-218c-23 76-54 145-80 218h-23L58-218 59 0H30v-248h44l77 211c21-75 51-140 76-211h43V0h-30" id="aB"/><path fill="#333" d="M135-143c-3-34-86-38-87 0 15 53 115 12 119 90S17 21 10-45l28-5c4 36 97 45 98 0-10-56-113-15-118-90-4-57 82-63 122-42 12 7 21 19 24 35" id="aC"/><path fill="#333" d="M137 0h-34L2-248h35l83 218 83-218h36" id="aD"/><path fill="#333" d="M206 0h-36l-40-164L89 0H53L-1-190h32L70-26l43-164h34l41 164 42-164h31" id="aE"/><path fill="#333" d="M212-179c-10-28-35-45-73-45-59 0-87 40-87 99 0 60 29 101 89 101 43 0 62-24 78-52l27 14C228-24 195 4 139 4 59 4 22-46 18-125c-6-104 99-153 187-111 19 9 31 26 39 46" id="aF"/><g id="k"><use transform="matrix(0.05,0,0,0.05,0,0)" xlink:href="#T"/><use transform="matrix(0.05,0,0,0.05,12,0)" xlink:href="#J"/><use transform="matrix(0.05,0,0,0.05,22,0)" xlink:href="#U"/><use transform="matrix(0.05,0,0,0.05,31,0)" xlink:href="#V"/><use transform="matrix(0.05,0,0,0.05,41,0)" xlink:href="#W"/><use transform="matrix(0.05,0,0,0.05,55.95,0)" xlink:href="#J"/><use transform="matrix(0.05,0,0,0.05,65.95,0)" xlink:href="#P"/><use transform="matrix(0.05,0,0,0.05,75.95,0)" xlink:href="#aB"/><use transform="matrix(0.05,0,0,0.05,90.9,0)" xlink:href="#Q"/><use transform="matrix(0.05,0,0,0.05,100.9,0)" xlink:href="#aC"/><use transform="matrix(0.05,0,0,0.05,109.9,0)" xlink:href="#M"/><use transform="matrix(0.05,0,0,0.05,114.9,0)" xlink:href="#V"/><use transform="matrix(0.05,0,0,0.05,124.9,0)" xlink:href="#S"/><use transform="matrix(0.05,0,0,0.05,130.85,0)" xlink:href="#aD"/><use transform="matrix(0.05,0,0,0.05,142.5,0)" xlink:href="#L"/><use transform="matrix(0.05,0,0,0.05,146.45,0)" xlink:href="#V"/><use transform="matrix(0.05,0,0,0.05,156.45,0)" xlink:href="#aE"/><use transform="matrix(0.05,0,0,0.05,169.39999999999998,0)" xlink:href="#aF"/><use transform="matrix(0.05,0,0,0.05,182.34999999999997,0)" xlink:href="#J"/><use transform="matrix(0.05,0,0,0.05,192.34999999999997,0)" xlink:href="#P"/><use transform="matrix(0.05,0,0,0.05,202.34999999999997,0)" xlink:href="#M"/><use transform="matrix(0.05,0,0,0.05,207.34999999999997,0)" xlink:href="#S"/><use transform="matrix(0.05,0,0,0.05,213.29999999999995,0)" xlink:href="#J"/><use transform="matrix(0.05,0,0,0.05,223.29999999999995,0)" xlink:href="#ac"/><use transform="matrix(0.05,0,0,0.05,227.24999999999991,0)" xlink:href="#ac"/><use transform="matrix(0.05,0,0,0.05,231.19999999999993,0)" xlink:href="#V"/><use transform="matrix(0.05,0,0,0.05,241.19999999999993,0)" xlink:href="#S"/></g><path fill="#333" d="M115-194c53 0 69 39 70 98 0 66-23 100-70 100C84 3 66-7 56-30L54 0H23l1-261h32v101c10-23 28-34 59-34zm-8 174c40 0 45-34 45-75 0-40-5-75-45-74-42 0-51 32-51 76 0 43 10 73 51 73" id="aG"/><g id="l"><use transform="matrix(0.05,0,0,0.05,0,0)" xlink:href="#M"/><use transform="matrix(0.05,0,0,0.05,5,0)" xlink:href="#Q"/><use transform="matrix(0.05,0,0,0.05,15,0)" xlink:href="#aG"/><use transform="matrix(0.05,0,0,0.05,25,0)" xlink:href="#ac"/><use transform="matrix(0.05,0,0,0.05,28.950000000000003,0)" xlink:href="#V"/><use transform="matrix(0.05,0,0,0.05,38.95,0)" xlink:href="#aD"/><use transform="matrix(0.05,0,0,0.05,50.6,0)" xlink:href="#L"/><use transform="matrix(0.05,0,0,0.05,54.550000000000004,0)" xlink:href="#V"/><use transform="matrix(0.05,0,0,0.05,64.55000000000001,0)" xlink:href="#aE"/></g><path fill="#333" d="M33-154v-36h34v36H33zM33 0v-36h34V0H33" id="aH"/><use transform="matrix(0.05,0,0,0.05,0,0)" xlink:href="#aH" id="m"/><path fill="#333" d="M232-93c-1 65-40 97-104 97C67 4 28-28 28-90v-158h33c8 89-33 224 67 224 102 0 64-133 71-224h33v155" id="aI"/><path fill="#333" d="M33 0v-248h34V0H33" id="aJ"/><path fill="#333" d="M127-220V0H93v-220H8v-28h204v28h-85" id="aK"/><g id="n"><use transform="matrix(0.05,0,0,0.05,0,0)" xlink:href="#aI"/><use transform="matrix(0.05,0,0,0.05,12.950000000000001,0)" xlink:href="#aJ"/><use transform="matrix(0.05,0,0,0.05,17.950000000000003,0)" xlink:href="#aK"/><use transform="matrix(0.05,0,0,0.05,26.900000000000006,0)" xlink:href="#Q"/><use transform="matrix(0.05,0,0,0.05,36.900000000000006,0)" xlink:href="#aG"/><use transform="matrix(0.05,0,0,0.05,46.900000000000006,0)" xlink:href="#ac"/><use transform="matrix(0.05,0,0,0.05,50.85000000000001,0)" xlink:href="#V"/><use transform="matrix(0.05,0,0,0.05,60.85,0)" xlink:href="#aD"/><use transform="matrix(0.05,0,0,0.05,72.5,0)" xlink:href="#L"/><use transform="matrix(0.05,0,0,0.05,76.45,0)" xlink:href="#V"/><use transform="matrix(0.05,0,0,0.05,86.45,0)" xlink:href="#aE"/></g><g id="o"><use transform="matrix(0.05,0,0,0.05,0,0)" xlink:href="#aC"/><use transform="matrix(0.05,0,0,0.05,9,0)" xlink:href="#V"/><use transform="matrix(0.05,0,0,0.05,19,0)" xlink:href="#Q"/><use transform="matrix(0.05,0,0,0.05,29,0)" xlink:href="#S"/><use transform="matrix(0.05,0,0,0.05,34.95,0)" xlink:href="#Z"/><use transform="matrix(0.05,0,0,0.05,43.95,0)" xlink:href="#K"/><use transform="matrix(0.05,0,0,0.05,53.95,0)" xlink:href="#aa"/><use transform="matrix(0.05,0,0,0.05,65.95,0)" xlink:href="#Q"/><use transform="matrix(0.05,0,0,0.05,75.95,0)" xlink:href="#S"/></g><g id="p"><use transform="matrix(0.05,0,0,0.05,0,0)" xlink:href="#aI"/><use transform="matrix(0.05,0,0,0.05,12.950000000000001,0)" xlink:href="#aJ"/><use transform="matrix(0.05,0,0,0.05,17.950000000000003,0)" xlink:href="#Y"/><use transform="matrix(0.05,0,0,0.05,29.950000000000003,0)" xlink:href="#V"/><use transform="matrix(0.05,0,0,0.05,39.95,0)" xlink:href="#Q"/><use transform="matrix(0.05,0,0,0.05,49.95,0)" xlink:href="#S"/><use transform="matrix(0.05,0,0,0.05,55.900000000000006,0)" xlink:href="#Z"/><use transform="matrix(0.05,0,0,0.05,64.9,0)" xlink:href="#K"/><use transform="matrix(0.05,0,0,0.05,74.9,0)" xlink:href="#aa"/><use transform="matrix(0.05,0,0,0.05,86.9,0)" xlink:href="#Q"/><use transform="matrix(0.05,0,0,0.05,96.9,0)" xlink:href="#S"/></g><path fill="#333" d="M115-194c55 1 70 41 70 98S169 2 115 4C84 4 66-9 55-30l1 105H24l-1-265h31l2 30c10-21 28-34 59-34zm-8 174c40 0 45-34 45-75s-6-73-45-74c-42 0-51 32-51 76 0 43 10 73 51 73" id="aL"/><path fill="#333" d="M101-234c-31-9-42 10-38 44h38v23H63V0H32v-167H5v-23h27c-7-52 17-82 69-68v24" id="aM"/><g id="q"><use transform="matrix(0.05,0,0,0.05,0,0)" xlink:href="#aC"/><use transform="matrix(0.05,0,0,0.05,9,0)" xlink:href="#aL"/><use transform="matrix(0.05,0,0,0.05,19,0)" xlink:href="#V"/><use transform="matrix(0.05,0,0,0.05,29,0)" xlink:href="#Z"/><use transform="matrix(0.05,0,0,0.05,38,0)" xlink:href="#L"/><use transform="matrix(0.05,0,0,0.05,41.95,0)" xlink:href="#aM"/><use transform="matrix(0.05,0,0,0.05,46.95,0)" xlink:href="#L"/><use transform="matrix(0.05,0,0,0.05,50.900000000000006,0)" xlink:href="#V"/><use transform="matrix(0.05,0,0,0.05,60.900000000000006,0)" xlink:href="#aC"/></g><g id="r"><use transform="matrix(0.05,0,0,0.05,0,0)" xlink:href="#L"/><use transform="matrix(0.05,0,0,0.05,3.95,0)" xlink:href="#W"/><use transform="matrix(0.05,0,0,0.05,18.900000000000002,0)" xlink:href="#aL"/><use transform="matrix(0.05,0,0,0.05,28.900000000000002,0)" xlink:href="#ac"/><use transform="matrix(0.05,0,0,0.05,32.85,0)" xlink:href="#V"/><use transform="matrix(0.05,0,0,0.05,42.85,0)" xlink:href="#W"/><use transform="matrix(0.05,0,0,0.05,57.800000000000004,0)" xlink:href="#V"/><use transform="matrix(0.05,0,0,0.05,67.80000000000001,0)" xlink:href="#P"/><use transform="matrix(0.05,0,0,0.05,77.80000000000001,0)" xlink:href="#M"/><use transform="matrix(0.05,0,0,0.05,82.80000000000001,0)" xlink:href="#aC"/></g><path fill="#333" d="M145-31C134-9 116 4 85 4 32 4 16-35 15-94c0-59 17-99 70-100 32-1 48 14 60 33 0-11-1-24 2-32h30l-1 268h-32zM93-21c41 0 51-33 51-76s-8-73-50-73c-40 0-46 35-46 75s5 74 45 74" id="aN"/><g id="s"><use transform="matrix(0.05,0,0,0.05,0,0)" xlink:href="#I"/><use transform="matrix(0.05,0,0,0.05,12.950000000000001,0)" xlink:href="#V"/><use transform="matrix(0.05,0,0,0.05,22.950000000000003,0)" xlink:href="#aN"/><use transform="matrix(0.05,0,0,0.05,32.95,0)" xlink:href="#O"/><use transform="matrix(0.05,0,0,0.05,42.95,0)" xlink:href="#V"/><use transform="matrix(0.05,0,0,0.05,52.95,0)" xlink:href="#aC"/><use transform="matrix(0.05,0,0,0.05,61.95,0)" xlink:href="#M"/><use transform="matrix(0.05,0,0,0.05,66.95,0)" xlink:href="#aB"/><use transform="matrix(0.05,0,0,0.05,81.9,0)" xlink:href="#Q"/><use transform="matrix(0.05,0,0,0.05,91.9,0)" xlink:href="#P"/><use transform="matrix(0.05,0,0,0.05,101.9,0)" xlink:href="#Q"/><use transform="matrix(0.05,0,0,0.05,111.9,0)" xlink:href="#ad"/><use transform="matrix(0.05,0,0,0.05,121.9,0)" xlink:href="#V"/><use transform="matrix(0.05,0,0,0.05,131.9,0)" xlink:href="#S"/></g><g id="t"><use transform="matrix(0.05,0,0,0.05,0,0)" xlink:href="#T"/><use transform="matrix(0.05,0,0,0.05,12,0)" xlink:href="#J"/><use transform="matrix(0.05,0,0,0.05,22,0)" xlink:href="#U"/><use transform="matrix(0.05,0,0,0.05,31,0)" xlink:href="#V"/><use transform="matrix(0.05,0,0,0.05,41,0)" xlink:href="#W"/><use transform="matrix(0.05,0,0,0.05,55.95,0)" xlink:href="#J"/><use transform="matrix(0.05,0,0,0.05,65.95,0)" xlink:href="#P"/><use transform="matrix(0.05,0,0,0.05,75.95,0)" xlink:href="#ab"/><use transform="matrix(0.05,0,0,0.05,88.9,0)" xlink:href="#Q"/><use transform="matrix(0.05,0,0,0.05,98.9,0)" xlink:href="#M"/><use transform="matrix(0.05,0,0,0.05,103.9,0)" xlink:href="#Q"/><use transform="matrix(0.05,0,0,0.05,113.9,0)" xlink:href="#Y"/><use transform="matrix(0.05,0,0,0.05,125.9,0)" xlink:href="#J"/><use transform="matrix(0.05,0,0,0.05,135.9,0)" xlink:href="#O"/><use transform="matrix(0.05,0,0,0.05,145.9,0)" xlink:href="#S"/><use transform="matrix(0.05,0,0,0.05,151.85,0)" xlink:href="#Z"/><use transform="matrix(0.05,0,0,0.05,160.85,0)" xlink:href="#V"/></g><path d="M240-174c0 40-23 61-54 70L253 0h-59l-57-94H76V0H24v-248c93 4 217-23 216 74zM76-134c48-2 112 12 112-38 0-48-66-32-112-35v73" id="aO"/><path d="M84 4C32 4 15-41 15-95c0-55 18-99 73-99 29 0 47 12 58 34l2-30h48l-1 265h-49V-32C136-9 114 4 84 4zm21-34c32 0 41-29 41-66 0-36-9-64-40-64-33 0-39 30-40 65 0 43 13 65 39 65" id="aP"/><path d="M137-138c1-29-70-34-71-4 15 46 118 7 119 86 1 83-164 76-172 9l43-7c4 19 20 25 44 25 33 8 57-30 24-41C81-84 22-81 20-136c-2-80 154-74 161-7" id="aQ"/><path d="M230 0l2-204L168 0h-37L68-204 70 0H24v-248h70l56 185 57-185h69V0h-46" id="aR"/><path d="M135-194c87-1 58 113 63 194h-50c-7-57 23-157-34-157-59 0-34 97-39 157H25l-1-190h47c2 12-1 28 3 38 12-26 28-41 61-42" id="aS"/><g id="u"><use transform="matrix(0.05,0,0,0.05,0,0)" xlink:href="#aO"/><use transform="matrix(0.05,0,0,0.05,12.950000000000001,0)" xlink:href="#ar"/><use transform="matrix(0.05,0,0,0.05,22.950000000000003,0)" xlink:href="#aP"/><use transform="matrix(0.05,0,0,0.05,33.900000000000006,0)" xlink:href="#aA"/><use transform="matrix(0.05,0,0,0.05,44.85000000000001,0)" xlink:href="#ar"/><use transform="matrix(0.05,0,0,0.05,54.85,0)" xlink:href="#aQ"/><use transform="matrix(0.05,0,0,0.05,64.85000000000001,0)" xlink:href="#ai"/><use transform="matrix(0.05,0,0,0.05,70.80000000000001,0)" xlink:href="#aR"/><use transform="matrix(0.05,0,0,0.05,85.75000000000001,0)" xlink:href="#ap"/><use transform="matrix(0.05,0,0,0.05,95.75000000000001,0)" xlink:href="#aS"/><use transform="matrix(0.05,0,0,0.05,106.7,0)" xlink:href="#ap"/><use transform="matrix(0.05,0,0,0.05,116.7,0)" xlink:href="#aw"/><use transform="matrix(0.05,0,0,0.05,127.65000000000003,0)" xlink:href="#ar"/><use transform="matrix(0.05,0,0,0.05,137.65000000000003,0)" xlink:href="#ag"/><use transform="matrix(0.05,0,0,0.05,144.65000000000003,0)" xlink:href="#av"/><use transform="matrix(0.05,0,0,0.05,157.60000000000002,0)" xlink:href="#ar"/><use transform="matrix(0.05,0,0,0.05,167.60000000000002,0)" xlink:href="#ak"/><use transform="matrix(0.05,0,0,0.05,172.60000000000002,0)" xlink:href="#ar"/><use transform="matrix(0.05,0,0,0.05,182.60000000000002,0)" xlink:href="#aw"/><use transform="matrix(0.05,0,0,0.05,193.55,0)" xlink:href="#ap"/><use transform="matrix(0.05,0,0,0.05,203.55,0)" xlink:href="#ai"/><use transform="matrix(0.05,0,0,0.05,209.5,0)" xlink:href="#ar"/></g><g id="v"><use transform="matrix(0.05,0,0,0.05,0,0)" xlink:href="#T"/><use transform="matrix(0.05,0,0,0.05,12,0)" xlink:href="#J"/><use transform="matrix(0.05,0,0,0.05,22,0)" xlink:href="#U"/><use transform="matrix(0.05,0,0,0.05,31,0)" xlink:href="#V"/><use transform="matrix(0.05,0,0,0.05,41,0)" xlink:href="#W"/><use transform="matrix(0.05,0,0,0.05,55.95,0)" xlink:href="#J"/><use transform="matrix(0.05,0,0,0.05,65.95,0)" xlink:href="#P"/><use transform="matrix(0.05,0,0,0.05,75.95,0)" xlink:href="#ab"/><use transform="matrix(0.05,0,0,0.05,88.9,0)" xlink:href="#V"/><use transform="matrix(0.05,0,0,0.05,98.9,0)" xlink:href="#M"/><use transform="matrix(0.05,0,0,0.05,103.9,0)" xlink:href="#Q"/><use transform="matrix(0.05,0,0,0.05,113.9,0)" xlink:href="#L"/><use transform="matrix(0.05,0,0,0.05,117.85000000000001,0)" xlink:href="#ac"/><use transform="matrix(0.05,0,0,0.05,121.80000000000001,0)" xlink:href="#aD"/><use transform="matrix(0.05,0,0,0.05,133.45000000000002,0)" xlink:href="#L"/><use transform="matrix(0.05,0,0,0.05,137.4,0)" xlink:href="#V"/><use transform="matrix(0.05,0,0,0.05,147.4,0)" xlink:href="#aE"/><use transform="matrix(0.05,0,0,0.05,160.35,0)" xlink:href="#aF"/><use transform="matrix(0.05,0,0,0.05,173.29999999999998,0)" xlink:href="#J"/><use transform="matrix(0.05,0,0,0.05,183.29999999999998,0)" xlink:href="#P"/><use transform="matrix(0.05,0,0,0.05,193.29999999999998,0)" xlink:href="#M"/><use transform="matrix(0.05,0,0,0.05,198.29999999999998,0)" xlink:href="#S"/><use transform="matrix(0.05,0,0,0.05,204.24999999999997,0)" xlink:href="#J"/><use transform="matrix(0.05,0,0,0.05,214.24999999999997,0)" xlink:href="#ac"/><use transform="matrix(0.05,0,0,0.05,218.19999999999996,0)" xlink:href="#ac"/><use transform="matrix(0.05,0,0,0.05,222.14999999999998,0)" xlink:href="#V"/><use transform="matrix(0.05,0,0,0.05,232.14999999999998,0)" xlink:href="#S"/></g><g id="w"><use transform="matrix(0.05,0,0,0.05,0,0)" xlink:href="#aI"/><use transform="matrix(0.05,0,0,0.05,12.950000000000001,0)" xlink:href="#aJ"/><use transform="matrix(0.05,0,0,0.05,17.950000000000003,0)" xlink:href="#aK"/><use transform="matrix(0.05,0,0,0.05,26.900000000000006,0)" xlink:href="#Q"/><use transform="matrix(0.05,0,0,0.05,36.900000000000006,0)" xlink:href="#aG"/><use transform="matrix(0.05,0,0,0.05,46.900000000000006,0)" xlink:href="#ac"/><use transform="matrix(0.05,0,0,0.05,50.85000000000001,0)" xlink:href="#V"/><use transform="matrix(0.05,0,0,0.05,60.85,0)" xlink:href="#aD"/><use transform="matrix(0.05,0,0,0.05,72.5,0)" xlink:href="#L"/><use transform="matrix(0.05,0,0,0.05,76.45,0)" xlink:href="#V"/><use transform="matrix(0.05,0,0,0.05,86.45,0)" xlink:href="#aE"/></g><path fill="#333" d="M85-194c31 0 48 13 60 33l-1-100h32l1 261h-30c-2-10 0-23-3-31C134-8 116 4 85 4 32 4 16-35 15-94c0-66 23-100 70-100zm9 24c-40 0-46 34-46 75 0 40 6 74 45 74 42 0 51-32 51-76 0-42-9-74-50-73" id="aT"/><path fill="#333" d="M205 0l-28-72H64L36 0H1l101-248h38L239 0h-34zm-38-99l-47-123c-12 45-31 82-46 123h93" id="aU"/><g id="x"><use transform="matrix(0.05,0,0,0.05,0,0)" xlink:href="#aT"/><use transform="matrix(0.05,0,0,0.05,10,0)" xlink:href="#L"/><use transform="matrix(0.05,0,0,0.05,13.949999999999998,0)" xlink:href="#aT"/><use transform="matrix(0.05,0,0,0.05,23.95,0)" xlink:href="#Y"/><use transform="matrix(0.05,0,0,0.05,35.95,0)" xlink:href="#V"/><use transform="matrix(0.05,0,0,0.05,45.95,0)" xlink:href="#ac"/><use transform="matrix(0.05,0,0,0.05,49.900000000000006,0)" xlink:href="#V"/><use transform="matrix(0.05,0,0,0.05,59.900000000000006,0)" xlink:href="#Z"/><use transform="matrix(0.05,0,0,0.05,68.9,0)" xlink:href="#M"/><use transform="matrix(0.05,0,0,0.05,73.9,0)" xlink:href="#I"/><use transform="matrix(0.05,0,0,0.05,86.85000000000001,0)" xlink:href="#J"/><use transform="matrix(0.05,0,0,0.05,96.85000000000001,0)" xlink:href="#aE"/><use transform="matrix(0.05,0,0,0.05,109.80000000000001,0)" xlink:href="#aU"/><use transform="matrix(0.05,0,0,0.05,121.80000000000001,0)" xlink:href="#M"/></g><path fill="#333" d="M141 0L90-78 38 0H4l68-98-65-92h35l48 74 47-74h35l-64 92 68 98h-35" id="aV"/><g id="y"><use transform="matrix(0.05,0,0,0.05,0,0)" xlink:href="#M"/><use transform="matrix(0.05,0,0,0.05,5,0)" xlink:href="#V"/><use transform="matrix(0.05,0,0,0.05,15,0)" xlink:href="#aV"/><use transform="matrix(0.05,0,0,0.05,24,0)" xlink:href="#M"/><use transform="matrix(0.05,0,0,0.05,29,0)" xlink:href="#aF"/><use transform="matrix(0.05,0,0,0.05,41.95,0)" xlink:href="#K"/><use transform="matrix(0.05,0,0,0.05,51.95,0)" xlink:href="#Q"/><use transform="matrix(0.05,0,0,0.05,61.95,0)" xlink:href="#P"/><use transform="matrix(0.05,0,0,0.05,71.95,0)" xlink:href="#ad"/><use transform="matrix(0.05,0,0,0.05,81.95,0)" xlink:href="#V"/><use transform="matrix(0.05,0,0,0.05,91.95,0)" xlink:href="#aT"/></g><g id="z"><use transform="matrix(0.05,0,0,0.05,0,0)" xlink:href="#aT"/><use transform="matrix(0.05,0,0,0.05,10,0)" xlink:href="#L"/><use transform="matrix(0.05,0,0,0.05,13.949999999999998,0)" xlink:href="#aC"/><use transform="matrix(0.05,0,0,0.05,22.95,0)" xlink:href="#W"/><use transform="matrix(0.05,0,0,0.05,37.9,0)" xlink:href="#L"/><use transform="matrix(0.05,0,0,0.05,41.85,0)" xlink:href="#aC"/><use transform="matrix(0.05,0,0,0.05,50.85,0)" xlink:href="#aC"/></g></defs></g></svg>